<svg width="231" height="265" viewBox="0 0 231 265" fill="none" xmlns="http://www.w3.org/2000/svg">
<path d="M183.597 43.616L87.5634 77.6494L21.1241 53.0862L1 81.0528L11.0621 192.18L41.6922 264.094L183.597 238L229.912 77.6494L183.597 43.616Z" fill="#C2543D" stroke="#C2563F"/>
<path d="M118.009 1L98.4766 75.5777L135.913 2.62769L118.009 1Z" fill="#C2543D" stroke="#C2563F"/>
<path d="M11.2509 142.261C9.16727 142.261 8.12546 141.786 8.12546 140.835C8.12546 140.144 8.55955 139.668 9.42773 139.409C10.2091 139.063 11.3377 138.761 12.8136 138.502C16.0259 137.897 18.6739 136.903 20.7575 135.52C22.8411 134.137 24.3605 131.89 25.3155 128.779L43.1566 70.4446C44.1116 67.2471 44.1984 65.0433 43.4171 63.8334C42.7225 62.5371 40.8993 61.6296 37.9475 61.1111C36.6452 60.8519 35.7336 60.5926 35.2127 60.3333C34.6918 59.9876 34.4314 59.5123 34.4314 58.9074C34.4314 58.3024 34.8655 57.9135 35.7336 57.7407C36.6886 57.4814 37.6871 57.3518 38.7289 57.3518C40.2048 57.3518 41.4202 57.395 42.3752 57.4814C43.4171 57.5678 44.3721 57.6975 45.2402 57.8703C46.1952 57.9567 47.2805 57.9999 48.4959 57.9999C49.7982 57.9999 51.2741 57.9135 52.9237 57.7407C54.5732 57.4814 56.1793 57.2654 57.7421 57.0925C59.3916 56.8332 60.7373 56.7036 61.7791 56.7036C67.6828 56.7036 72.3709 57.4814 75.8437 59.037C79.4032 60.5926 81.9643 62.6667 83.5271 65.2593C85.0898 67.7656 85.8712 70.5311 85.8712 73.5558C85.8712 76.667 85.1332 79.4325 83.6573 81.8523C82.1814 84.1857 80.2714 86.2166 77.9273 87.945C75.5832 89.6735 73.0655 91.0562 70.3741 92.0933C67.6828 93.1303 65.0782 93.8217 62.5605 94.1674C61.8659 94.2538 61.5187 94.4699 61.5187 94.8155C61.6055 95.0748 61.8225 95.2909 62.1698 95.4637C67.2052 97.365 71.1555 99.8712 74.0205 102.982C76.9723 106.094 78.4482 110.674 78.4482 116.723C78.4482 120.44 77.58 123.853 75.8437 126.964C74.1073 130.076 71.633 132.798 68.4207 135.131C65.2953 137.378 61.6055 139.107 57.3514 140.317C53.0973 141.526 48.4959 142.131 43.5473 142.131C39.9009 142.131 36.8623 141.959 34.4314 141.613C32.0005 141.354 29.5696 141.224 27.1386 141.224C25.055 141.224 23.2752 141.31 21.7993 141.483C20.3234 141.656 18.7607 141.829 17.1111 142.002C15.5484 142.175 13.595 142.261 11.2509 142.261ZM43.1566 138.891C46.1084 138.891 49.0168 138.329 51.8818 137.205C54.8337 135.995 57.525 134.31 59.9559 132.15C62.3868 129.989 64.2968 127.483 65.6859 124.631C67.1618 121.693 67.8998 118.495 67.8998 115.038C67.8998 109.075 66.0766 104.538 62.4303 101.427C58.8707 98.3156 53.5314 96.76 46.4123 96.76C45.8046 96.76 45.2402 96.9761 44.7193 97.4082C44.1984 97.8403 43.8511 98.4453 43.6775 99.223L35.343 127.613C34.9089 129.168 34.7352 130.681 34.8221 132.15C34.9957 133.619 35.6034 134.829 36.6452 135.779C37.6002 136.644 38.5552 137.378 39.5102 137.983C40.4652 138.588 41.6807 138.891 43.1566 138.891ZM47.8448 93.5192C49.8416 93.5192 51.795 93.3896 53.705 93.1303C55.7018 92.7846 57.7421 92.3957 59.8257 91.9636C64.1666 90.1488 67.813 87.729 70.7648 84.7042C73.8034 81.6795 75.3228 77.9633 75.3228 73.5558C75.3228 70.0125 73.9337 66.9878 71.1555 64.4816C68.3773 61.8889 64.4271 60.5926 59.3048 60.5926C57.6552 60.5926 56.4398 60.7654 55.6584 61.1111C54.9639 61.3704 54.5298 61.8889 54.3562 62.6667L46.2821 91.5747C45.9348 92.8711 46.4557 93.5192 47.8448 93.5192Z" fill="white"/>
<path d="M93.8496 143.428C92.3737 143.428 91.1583 142.952 90.2033 142.002C89.2483 141.051 88.7708 140.057 88.7708 139.02C88.7708 138.675 88.7708 138.329 88.7708 137.983C88.8576 137.637 88.9878 137.292 89.1614 136.946C92.721 129.773 95.7162 123.032 98.1471 116.723C100.578 110.328 102.748 104.754 104.658 100.001C105.006 98.9638 104.789 98.4453 104.007 98.4453C103.573 98.4453 102.705 98.7045 101.403 99.223C100.187 99.6552 98.8851 100.26 97.496 101.038C96.1069 101.816 94.8914 102.593 93.8496 103.371C93.4155 103.717 92.9814 103.803 92.5473 103.631C92.1133 103.458 91.8962 103.155 91.8962 102.723C91.8962 102.291 92.2001 101.686 92.8078 100.908C93.5023 100.044 94.4139 99.0934 95.5426 98.0564C96.758 97.0193 98.1905 95.939 99.8401 94.8155C101.49 93.6056 103.269 92.4389 105.179 91.3155C107.176 90.1056 109.26 89.0253 111.43 88.0747C112.212 87.729 112.993 87.8154 113.774 88.3339C114.556 88.8525 115.163 89.5006 115.598 90.2784C116.118 91.0562 116.292 91.6612 116.118 92.0933L100.231 129.557C99.8835 130.248 99.623 130.94 99.4494 131.631C99.3626 132.236 99.3192 132.798 99.3192 133.316C99.3192 133.921 99.5362 134.353 99.9703 134.613C100.491 134.786 100.969 134.872 101.403 134.872C102.618 134.872 104.007 134.31 105.57 133.187C107.133 131.977 108.782 130.551 110.519 128.909C112.342 127.18 114.078 125.495 115.728 123.853C115.901 123.68 116.075 123.594 116.249 123.594C116.422 123.594 116.596 123.68 116.77 123.853C116.943 123.94 117.03 124.069 117.03 124.242C117.03 125.625 116.205 127.396 114.556 129.557C112.906 131.631 110.823 133.748 108.305 135.909C105.874 137.983 103.356 139.755 100.752 141.224C98.1471 142.693 95.8464 143.428 93.8496 143.428ZM120.156 75.1114C118.853 75.1114 117.768 74.5929 116.9 73.5558C116.032 72.5188 115.598 71.3521 115.598 70.0557C115.598 67.9816 116.292 66.1668 117.681 64.6112C119.07 62.9692 120.807 62.1482 122.89 62.1482C124.279 62.1482 125.365 62.7531 126.146 63.963C126.927 65.0865 127.318 66.3396 127.318 67.7224C127.318 69.6236 126.623 71.3521 125.234 72.9077C123.845 74.3768 122.152 75.1114 120.156 75.1114Z" fill="white"/>
<path d="M131.869 143.428C131.174 143.428 130.393 143.125 129.525 142.52C128.657 142.002 127.919 141.397 127.311 140.705C126.79 139.928 126.53 139.236 126.53 138.631C126.53 137.162 126.703 135.909 127.05 134.872C127.485 133.835 127.919 132.668 128.353 131.372L140.724 96.76C140.898 96.1551 140.811 95.7662 140.464 95.5933C140.203 95.3341 139.856 95.2044 139.422 95.2044L134.213 94.9452C133.084 94.8588 132.39 94.6427 132.129 94.297C131.956 93.8649 131.869 93.476 131.869 93.1303C131.869 92.9575 132.086 92.655 132.52 92.2229C132.954 91.7044 133.475 91.229 134.083 90.7969C134.777 90.2784 135.515 90.0191 136.297 90.0191H140.985C141.94 90.0191 142.591 89.8895 142.938 89.6302C143.285 89.2846 143.676 88.6364 144.11 87.6858L147.236 81.3338C147.583 80.6424 148.234 79.8646 149.189 79.0004C150.144 78.0498 151.099 77.2287 152.054 76.5374C153.096 75.846 153.834 75.5003 154.268 75.5003C154.963 75.5003 155.397 75.9756 155.57 76.9263C155.744 77.8769 155.657 78.7843 155.31 79.6486L151.924 88.3339C151.75 88.9389 151.794 89.3278 152.054 89.5006C152.401 89.6735 152.922 89.7599 153.617 89.7599C155.353 89.7599 157.133 89.8895 158.956 90.1488C160.779 90.408 162.255 90.6241 163.384 90.7969C164.773 91.0562 165.598 91.3587 165.858 91.7044C166.205 91.9636 166.379 92.3093 166.379 92.7414C166.379 92.9143 166.205 93.2167 165.858 93.6489C165.511 93.9945 164.86 94.2106 163.905 94.297C161.995 94.3834 160.172 94.5131 158.435 94.6859C156.699 94.7723 154.876 94.8588 152.966 94.9452C151.577 95.0316 150.578 95.2476 149.97 95.5933C149.45 95.939 149.102 96.3711 148.929 96.8897L137.338 128.779C136.991 129.816 136.818 130.724 136.818 131.502C136.818 132.279 137.035 132.884 137.469 133.316C137.99 133.748 138.728 133.965 139.683 133.965C140.898 133.965 142.2 133.532 143.589 132.668C144.978 131.804 146.324 130.81 147.626 129.687C148.929 128.563 150.014 127.569 150.882 126.705C151.837 125.754 152.662 125.322 153.356 125.409C154.051 125.495 154.398 125.798 154.398 126.316C154.398 126.921 154.181 127.613 153.747 128.39C153.313 129.082 152.749 129.816 152.054 130.594C150.665 132.063 149.189 133.446 147.626 134.742C146.15 136.039 144.588 137.249 142.938 138.372C141.375 139.409 139.856 140.317 138.38 141.094C136.991 141.786 135.732 142.347 134.604 142.78C133.475 143.212 132.563 143.428 131.869 143.428Z" fill="white"/>
<path d="M175.364 143.557C173.541 143.557 171.674 142.866 169.764 141.483C167.941 140.1 166.421 138.372 165.206 136.298C163.991 134.137 163.383 132.063 163.383 130.076C163.383 125.754 164.251 121.174 165.987 116.335C167.811 111.408 170.285 106.828 173.41 102.593C176.536 98.2724 180.139 94.7723 184.219 92.0933C188.387 89.3278 192.771 87.945 197.372 87.945C200.411 87.945 202.755 88.5932 204.404 89.8895C206.141 91.0994 207.009 92.8278 207.009 95.0748C207.009 97.7539 206.141 100.087 204.404 102.075C202.755 104.063 200.498 105.791 197.633 107.26C194.768 108.643 191.555 109.81 187.996 110.76C184.523 111.711 180.964 112.532 177.317 113.223C176.796 113.31 176.362 113.439 176.015 113.612C175.754 113.699 175.537 114.001 175.364 114.52C174.756 116.421 174.148 118.495 173.541 120.742C172.933 122.989 172.629 125.106 172.629 127.094C172.629 130.119 173.193 132.452 174.322 134.094C175.537 135.736 177.274 136.557 179.531 136.557C182.657 136.557 185.304 135.779 187.475 134.224C189.645 132.668 191.425 131.113 192.814 129.557C193.682 128.606 194.464 128.131 195.158 128.131C196.027 128.131 196.461 128.563 196.461 129.427C196.461 129.514 196.461 129.687 196.461 129.946C196.461 130.119 196.374 130.292 196.2 130.464C194.464 133.316 192.51 135.736 190.34 137.724C188.169 139.625 185.825 141.051 183.308 142.002C180.877 143.039 178.229 143.557 175.364 143.557ZM178.229 110.242C179.184 110.242 180.79 109.983 183.047 109.464C185.391 108.859 187.822 107.952 190.34 106.742C192.858 105.445 194.985 103.89 196.721 102.075C198.544 100.174 199.456 97.9267 199.456 95.3341C199.456 94.2106 199.152 93.26 198.544 92.4822C197.937 91.6179 197.068 91.1858 195.94 91.1858C194.117 91.1858 192.12 91.9636 189.949 93.5192C187.866 94.9884 185.869 96.8032 183.959 98.9638C182.049 101.038 180.443 103.069 179.14 105.057C177.925 107.044 177.317 108.513 177.317 109.464C177.317 109.983 177.621 110.242 178.229 110.242Z" fill="white"/>
<path d="M5.49185 249.87C4.36321 249.87 3.40821 249.222 2.62684 247.926C1.84548 246.543 1.80207 243.864 2.49662 239.889C5.01434 225.37 7.09798 213.012 8.74753 202.814C10.3971 192.616 11.5257 183.931 12.1334 176.758C12.3071 173.992 12.09 171.875 11.4823 170.406C10.9614 168.85 8.96457 167.813 5.49185 167.294C4.18957 167.122 3.32139 166.819 2.8873 166.387C2.54002 165.869 2.36639 165.307 2.36639 164.702C2.36639 164.097 2.75707 163.665 3.53843 163.405C4.3198 163.146 5.23139 163.017 6.27321 163.017C8.00957 163.017 10.0498 163.146 12.3939 163.405C14.8248 163.665 17.3859 163.794 20.0773 163.794C21.64 163.794 23.2028 163.794 24.7655 163.794C26.3282 163.708 27.8041 163.665 29.1932 163.665C30.5823 163.665 31.7544 163.665 32.7094 163.665C33.7512 163.665 34.5325 163.794 35.0534 164.054C35.5744 164.226 35.8348 164.572 35.8348 165.091C35.8348 165.696 35.3573 166.214 34.4023 166.646C33.5341 167.078 32.4923 167.381 31.2769 167.554C28.7591 167.899 26.7623 168.634 25.2864 169.757C23.8973 170.881 22.9423 173.085 22.4214 176.369L13.6962 229.518C13.4357 230.987 13.3489 232.024 13.4357 232.629C13.6094 233.234 13.8698 233.537 14.2171 233.537C14.5643 233.537 14.9984 233.148 15.5194 232.37C16.0403 231.592 16.865 230.512 17.9937 229.129L54.4573 184.276C57.5828 180.474 59.5796 177.406 60.4478 175.072C61.4028 172.653 61.6198 170.838 61.0989 169.628C60.578 168.418 59.7098 167.727 58.4944 167.554C57.1053 167.381 56.2371 167.078 55.8898 166.646C55.5425 166.128 55.3689 165.566 55.3689 164.961C55.3689 164.443 55.7596 164.097 56.541 163.924C57.3223 163.665 58.2339 163.535 59.2757 163.535C60.4044 163.535 62.0973 163.578 64.3546 163.665C66.6987 163.751 68.9559 163.794 71.1264 163.794C73.8177 163.794 75.9448 163.665 77.5075 163.405C79.1571 163.146 80.9803 163.017 82.9771 163.017C84.0189 163.017 84.7568 163.189 85.1909 163.535C85.7118 163.794 85.9723 164.183 85.9723 164.702C85.9723 165.307 85.5382 165.869 84.67 166.387C83.8018 166.819 82.6298 167.251 81.1539 167.683C78.8966 168.288 76.4223 169.325 73.7309 170.795C71.0396 172.264 68.435 174.554 65.9173 177.665L17.603 235.74C16.2139 237.382 14.9116 239.024 13.6962 240.666C12.4807 242.308 11.3087 243.821 10.18 245.204C9.13821 246.586 8.22662 247.71 7.44526 248.574C6.66389 249.438 6.01276 249.87 5.49185 249.87Z" fill="white"/>
<path d="M74.672 249.87C73.1961 249.87 71.9807 249.395 71.0257 248.444C70.0707 247.494 69.5932 246.5 69.5932 245.463C69.5932 245.117 69.5932 244.771 69.5932 244.426C69.68 244.08 69.8102 243.734 69.9838 243.389C73.5434 236.216 76.5386 229.475 78.9695 223.166C81.4004 216.771 83.5709 211.197 85.4809 206.443C85.8282 205.406 85.6111 204.888 84.8298 204.888C84.3957 204.888 83.5275 205.147 82.2252 205.666C81.0098 206.098 79.7075 206.703 78.3184 207.481C76.9293 208.258 75.7138 209.036 74.672 209.814C74.2379 210.16 73.8038 210.246 73.3698 210.073C72.9357 209.9 72.7186 209.598 72.7186 209.166C72.7186 208.734 73.0225 208.129 73.6302 207.351C74.3247 206.487 75.2363 205.536 76.365 204.499C77.5804 203.462 79.0129 202.382 80.6625 201.258C82.312 200.048 84.0918 198.882 86.0018 197.758C87.9986 196.548 90.0823 195.468 92.2527 194.517C93.0341 194.172 93.8154 194.258 94.5968 194.777C95.3782 195.295 95.9859 195.943 96.42 196.721C96.9409 197.499 97.1145 198.104 96.9409 198.536L81.0532 236C80.7059 236.691 80.4454 237.382 80.2718 238.074C80.185 238.679 80.1416 239.24 80.1416 239.759C80.1416 240.364 80.3586 240.796 80.7927 241.055C81.3136 241.228 81.7911 241.315 82.2252 241.315C83.4407 241.315 84.8298 240.753 86.3925 239.629C87.9552 238.419 89.6048 236.993 91.3411 235.351C93.1643 233.623 94.9007 231.938 96.5502 230.296C96.7239 230.123 96.8975 230.037 97.0711 230.037C97.2448 230.037 97.4184 230.123 97.592 230.296C97.7657 230.382 97.8525 230.512 97.8525 230.685C97.8525 232.067 97.0277 233.839 95.3782 236C93.7286 238.074 91.645 240.191 89.1273 242.352C86.6963 244.426 84.1786 246.197 81.5741 247.667C78.9695 249.136 76.6688 249.87 74.672 249.87ZM100.978 181.554C99.6757 181.554 98.5904 181.035 97.7223 179.998C96.8541 178.961 96.42 177.795 96.42 176.498C96.42 174.424 97.1145 172.609 98.5036 171.054C99.8927 169.412 101.629 168.591 103.713 168.591C105.102 168.591 106.187 169.196 106.968 170.406C107.75 171.529 108.14 172.782 108.14 174.165C108.14 176.066 107.446 177.795 106.057 179.35C104.668 180.819 102.975 181.554 100.978 181.554Z" fill="white"/>
<path d="M118.761 249.093C115.375 249.093 112.684 248.142 110.687 246.241C108.69 244.253 107.692 241.66 107.692 238.463C107.692 236.302 107.952 233.882 108.473 231.203C108.994 228.438 109.732 225.629 110.687 222.777L127.096 173.387C127.53 172.177 127.834 171.011 128.007 169.887C128.268 168.677 128.398 167.511 128.398 166.387C128.398 165.955 128.137 165.566 127.617 165.22C127.182 164.875 126.358 164.529 125.142 164.183C122.451 163.492 121.105 162.844 121.105 162.239C121.105 161.807 121.235 161.461 121.496 161.202C121.843 160.942 122.407 160.683 123.189 160.424C124.144 160.078 125.359 159.689 126.835 159.257C128.398 158.739 129.961 158.263 131.523 157.831C133.086 157.399 134.475 157.054 135.691 156.794C136.993 156.535 137.818 156.405 138.165 156.405C139.554 156.405 140.249 156.837 140.249 157.702C140.249 158.479 140.162 159.171 139.988 159.776C139.901 160.294 139.684 161.029 139.337 161.98C138.642 163.708 137.687 166.301 136.472 169.757C135.257 173.128 133.911 176.93 132.435 181.165C131.046 185.313 129.613 189.548 128.137 193.869C126.662 198.104 125.272 202.079 123.97 205.795C122.755 209.511 121.8 212.493 121.105 214.74C120.758 215.604 120.758 216.123 121.105 216.296C121.539 216.468 122.06 216.166 122.668 215.388C127.79 208.647 132.652 203.462 137.253 199.832C141.855 196.202 145.762 194.388 148.974 194.388C151.752 194.388 154.053 195.295 155.876 197.11C157.699 198.925 158.611 201.215 158.611 203.98C158.611 207.956 157.786 212.061 156.136 216.296C154.574 220.444 152.403 224.506 149.625 228.481C146.934 232.37 143.852 235.87 140.379 238.981C136.906 242.092 133.303 244.555 129.57 246.37C125.924 248.185 122.321 249.093 118.761 249.093ZM122.147 244.944C123.276 244.944 124.752 244.339 126.575 243.129C128.398 241.92 130.351 240.278 132.435 238.203C134.605 236.043 136.689 233.623 138.686 230.944C140.77 228.178 142.68 225.154 144.416 221.87C146.152 218.499 147.498 215.302 148.453 212.277C149.495 209.166 150.016 206.573 150.016 204.499C150.016 203.03 149.625 201.82 148.844 200.869C148.149 199.832 147.281 199.314 146.239 199.314C143.548 199.314 140.466 200.826 136.993 203.851C133.52 206.876 129.483 211.499 124.882 217.721C122.017 221.697 119.716 225.37 117.98 228.74C116.243 232.111 115.375 234.617 115.375 236.259C115.375 238.592 116.026 240.623 117.329 242.352C118.718 244.08 120.324 244.944 122.147 244.944Z" fill="white"/>
<path d="M173.355 250C171.532 250 169.665 249.309 167.755 247.926C165.932 246.543 164.413 244.815 163.197 242.741C161.982 240.58 161.374 238.506 161.374 236.518C161.374 232.197 162.242 227.617 163.978 222.777C165.802 217.851 168.276 213.271 171.401 209.036C174.527 204.715 178.13 201.215 182.21 198.536C186.378 195.77 190.762 194.388 195.363 194.388C198.402 194.388 200.746 195.036 202.396 196.332C204.132 197.542 205 199.27 205 201.517C205 204.196 204.132 206.53 202.396 208.518C200.746 210.505 198.489 212.234 195.624 213.703C192.759 215.086 189.546 216.252 185.987 217.203C182.514 218.154 178.955 218.975 175.308 219.666C174.787 219.752 174.353 219.882 174.006 220.055C173.746 220.141 173.528 220.444 173.355 220.962C172.747 222.864 172.139 224.938 171.532 227.185C170.924 229.432 170.62 231.549 170.62 233.537C170.62 236.561 171.184 238.895 172.313 240.537C173.528 242.179 175.265 243 177.522 243C180.648 243 183.296 242.222 185.466 240.666C187.636 239.111 189.416 237.555 190.805 236C191.673 235.049 192.455 234.574 193.149 234.574C194.018 234.574 194.452 235.006 194.452 235.87C194.452 235.956 194.452 236.129 194.452 236.389C194.452 236.561 194.365 236.734 194.191 236.907C192.455 239.759 190.501 242.179 188.331 244.166C186.161 246.068 183.816 247.494 181.299 248.444C178.868 249.481 176.22 250 173.355 250ZM176.22 216.684C177.175 216.684 178.781 216.425 181.038 215.907C183.382 215.302 185.813 214.394 188.331 213.184C190.849 211.888 192.976 210.332 194.712 208.518C196.535 206.616 197.447 204.369 197.447 201.777C197.447 200.653 197.143 199.703 196.535 198.925C195.928 198.061 195.059 197.628 193.931 197.628C192.108 197.628 190.111 198.406 187.94 199.962C185.857 201.431 183.86 203.246 181.95 205.406C180.04 207.481 178.434 209.511 177.131 211.499C175.916 213.487 175.308 214.956 175.308 215.907C175.308 216.425 175.612 216.684 176.22 216.684Z" fill="white"/>
</svg>
