<svg width="519" height="470" viewBox="0 0 519 470" fill="none" xmlns="http://www.w3.org/2000/svg">
<path d="M7.61555 209.437C2.53852 209.437 0 208.274 0 205.947C0 204.254 1.05771 203.091 3.17314 202.456C5.07703 201.61 7.82709 200.869 11.4233 200.235C19.2504 198.754 25.7025 196.321 30.7795 192.936C35.8565 189.551 39.5585 184.051 41.8855 176.435L85.3576 33.6369C87.6846 25.8095 87.8961 20.4149 85.9922 17.4531C84.2999 14.2798 79.8575 12.0585 72.665 10.7892C69.4919 10.1545 67.2707 9.51988 66.0014 8.88522C64.7322 8.03901 64.0975 6.87547 64.0975 5.3946C64.0975 3.91373 65.1552 2.96174 67.2707 2.53864C69.5976 1.90398 72.0304 1.58665 74.5689 1.58665C78.1651 1.58665 81.1267 1.69242 83.4537 1.90397C85.9922 2.11553 88.3192 2.43286 90.4346 2.85597C92.7616 3.06752 95.4059 3.17329 98.3675 3.17329C101.541 3.17329 105.137 2.96174 109.156 2.53864C113.175 1.90398 117.089 1.37509 120.897 0.951995C124.916 0.317332 128.195 0 130.734 0C145.118 0 156.542 1.90398 165.004 5.71193C173.677 9.51988 179.917 14.5972 183.725 20.9437C187.533 27.0788 189.437 33.8485 189.437 41.2528C189.437 48.8687 187.639 55.6384 184.042 61.5619C180.446 67.2738 175.792 72.2453 170.081 76.4764C164.369 80.7074 158.234 84.0923 151.676 86.6309C145.118 89.1695 138.772 90.862 132.637 91.7082C130.945 91.9197 130.099 92.4486 130.099 93.2948C130.31 93.9295 130.839 94.4584 131.685 94.8815C143.955 99.5356 153.58 105.671 160.561 113.287C167.754 120.902 171.35 132.115 171.35 146.923C171.35 156.02 169.234 164.377 165.004 171.993C160.773 179.608 154.744 186.272 146.917 191.984C139.301 197.485 130.31 201.716 119.945 204.677C109.579 207.639 98.3675 209.12 86.3095 209.12C77.4247 209.12 70.0207 208.697 64.0975 207.851C58.1743 207.216 52.2511 206.899 46.3279 206.899C41.2509 206.899 36.9142 207.11 33.318 207.533C29.7218 207.957 25.914 208.38 21.8947 208.803C18.0869 209.226 13.3272 209.437 7.61555 209.437ZM85.3576 201.187C92.5501 201.187 99.6367 199.812 106.618 197.062C113.81 194.1 120.368 189.975 126.291 184.686C132.214 179.397 136.868 173.262 140.253 166.281C143.849 159.088 145.647 151.26 145.647 142.798C145.647 128.201 141.205 117.095 132.32 109.479C123.647 101.863 110.637 98.0548 93.2904 98.0548C91.8096 98.0548 90.4346 98.5836 89.1654 99.6414C87.8961 100.699 87.0499 102.18 86.6269 104.084L66.3187 173.579C65.261 177.387 64.8379 181.089 65.0495 184.686C65.4725 188.282 66.9534 191.244 69.4919 193.571C71.8188 195.686 74.1458 197.485 76.4728 198.966C78.7998 200.446 81.7614 201.187 85.3576 201.187ZM96.7809 90.1215C101.646 90.1215 106.406 89.8042 111.06 89.1695C115.926 88.3233 120.897 87.3713 125.974 86.3136C136.551 81.871 145.436 75.9475 152.628 68.5431C160.032 61.1388 163.734 52.042 163.734 41.2528C163.734 32.5791 160.35 25.1748 153.58 19.0398C146.811 12.6932 137.186 9.51989 124.705 9.51989C120.685 9.51989 117.724 9.94299 115.82 10.7892C114.127 11.4239 113.07 12.6932 112.647 14.5971L92.9731 85.3616C92.127 88.5349 93.3962 90.1215 96.7809 90.1215Z" fill="white"/>
<path d="M208.877 212.293C205.281 212.293 202.319 211.13 199.992 208.803C197.665 206.476 196.502 204.043 196.502 201.504C196.502 200.658 196.502 199.812 196.502 198.966C196.713 198.119 197.031 197.273 197.454 196.427C206.127 178.868 213.425 162.367 219.349 146.923C225.272 131.269 230.56 117.623 235.214 105.988C236.06 103.449 235.532 102.18 233.628 102.18C232.57 102.18 230.455 102.815 227.281 104.084C224.32 105.142 221.147 106.623 217.762 108.527C214.377 110.431 211.416 112.335 208.877 114.239C207.819 115.085 206.762 115.296 205.704 114.873C204.646 114.45 204.117 113.71 204.117 112.652C204.117 111.594 204.858 110.113 206.339 108.209C208.031 106.094 210.252 103.767 213.002 101.228C215.964 98.6894 219.454 96.045 223.474 93.2948C227.493 90.3331 231.83 87.4771 236.484 84.7269C241.349 81.7652 246.426 79.1208 251.715 76.7937C253.619 75.9475 255.522 76.159 257.426 77.4284C259.33 78.6977 260.811 80.2843 261.869 82.1883C263.138 84.0923 263.561 85.5731 263.138 86.6309L224.426 178.339C223.579 180.032 222.945 181.724 222.522 183.416C222.31 184.897 222.204 186.272 222.204 187.542C222.204 189.023 222.733 190.08 223.791 190.715C225.06 191.138 226.224 191.35 227.281 191.35C230.243 191.35 233.628 189.974 237.436 187.224C241.243 184.263 245.263 180.772 249.493 176.752C253.936 172.521 258.167 168.396 262.186 164.377C262.609 163.953 263.032 163.742 263.455 163.742C263.878 163.742 264.301 163.953 264.725 164.377C265.148 164.588 265.359 164.905 265.359 165.329C265.359 168.713 263.35 173.05 259.33 178.339C255.311 183.416 250.234 188.599 244.099 193.888C238.176 198.966 232.041 203.302 225.695 206.899C219.349 210.495 213.743 212.293 208.877 212.293ZM272.975 45.0608C269.802 45.0608 267.157 43.7915 265.042 41.2528C262.926 38.7142 261.869 35.8582 261.869 32.6849C261.869 27.6077 263.561 23.165 266.946 19.3571C270.33 15.3376 274.561 13.3278 279.638 13.3278C283.023 13.3278 285.667 14.8087 287.571 17.7704C289.475 20.5206 290.427 23.5881 290.427 26.973C290.427 31.6272 288.735 35.8582 285.35 39.6662C281.965 43.2626 277.84 45.0608 272.975 45.0608Z" fill="white"/>
<path d="M301.516 212.293C299.823 212.293 297.919 211.553 295.804 210.072C293.689 208.803 291.89 207.322 290.41 205.629C289.14 203.725 288.506 202.033 288.506 200.552C288.506 196.956 288.929 193.888 289.775 191.35C290.833 188.811 291.89 185.955 292.948 182.782L323.093 98.0548C323.516 96.5739 323.305 95.6219 322.458 95.1988C321.824 94.5641 320.978 94.2468 319.92 94.2468L307.227 93.6122C304.477 93.4006 302.785 92.8717 302.15 92.0255C301.727 90.9678 301.516 90.0158 301.516 89.1695C301.516 88.7464 302.045 88.006 303.102 86.9482C304.16 85.6789 305.429 84.5154 306.91 83.4576C308.602 82.1883 310.4 81.5536 312.304 81.5536H323.728C326.055 81.5536 327.641 81.2363 328.487 80.6017C329.334 79.7554 330.286 78.1688 331.343 75.8417L338.959 60.2926C339.805 58.6002 341.392 56.6962 343.718 54.5807C346.045 52.2536 348.372 50.2438 350.699 48.5514C353.238 46.859 355.036 46.0127 356.094 46.0127C357.786 46.0127 358.844 47.1763 359.267 49.5034C359.69 51.8305 359.478 54.0518 358.632 56.1673L350.382 77.4284C349.959 78.9092 350.065 79.8612 350.699 80.2843C351.546 80.7074 352.815 80.919 354.507 80.919C358.738 80.919 363.075 81.2363 367.517 81.871C371.959 82.5056 375.556 83.0345 378.306 83.4576C381.69 84.0923 383.7 84.8327 384.335 85.6789C385.181 86.3136 385.604 87.1598 385.604 88.2176C385.604 88.6407 385.181 89.3811 384.335 90.4389C383.489 91.2851 381.902 91.814 379.575 92.0255C374.921 92.2371 370.479 92.5544 366.248 92.9775C362.017 93.189 357.575 93.4006 352.921 93.6122C349.536 93.8237 347.103 94.3526 345.622 95.1988C344.353 96.045 343.507 97.1028 343.084 98.3721L314.843 176.435C313.997 178.974 313.574 181.195 313.574 183.099C313.574 185.003 314.102 186.484 315.16 187.542C316.429 188.599 318.228 189.128 320.555 189.128C323.516 189.128 326.689 188.071 330.074 185.955C333.459 183.839 336.738 181.407 339.911 178.656C343.084 175.906 345.728 173.473 347.844 171.358C350.171 169.031 352.18 167.973 353.873 168.185C355.565 168.396 356.411 169.137 356.411 170.406C356.411 171.887 355.882 173.579 354.824 175.483C353.767 177.176 352.392 178.974 350.699 180.878C347.315 184.474 343.718 187.859 339.911 191.032C336.314 194.206 332.507 197.167 328.487 199.917C324.68 202.456 320.978 204.677 317.381 206.581C313.997 208.274 310.929 209.649 308.179 210.707C305.429 211.764 303.208 212.293 301.516 212.293Z" fill="white"/>
<path d="M407.496 212.611C403.054 212.611 398.506 210.918 393.852 207.533C389.409 204.149 385.707 199.917 382.746 194.84C379.784 189.551 378.303 184.474 378.303 179.608C378.303 169.031 380.419 157.818 384.65 145.972C389.092 133.913 395.121 122.701 402.736 112.335C410.352 101.757 419.131 93.189 429.074 86.6309C439.228 79.8612 449.911 76.4764 461.122 76.4764C468.526 76.4764 474.238 78.063 478.257 81.2363C482.488 84.1981 484.604 88.4291 484.604 93.9295C484.604 100.488 482.488 106.2 478.257 111.065C474.238 115.931 468.738 120.162 461.757 123.758C454.776 127.143 446.949 129.999 438.276 132.326C429.814 134.653 421.141 136.663 412.256 138.356C410.987 138.567 409.929 138.884 409.083 139.308C408.448 139.519 407.919 140.26 407.496 141.529C406.015 146.183 404.535 151.26 403.054 156.761C401.573 162.261 400.833 167.444 400.833 172.31C400.833 179.714 402.208 185.426 404.958 189.446C407.919 193.465 412.15 195.475 417.65 195.475C425.266 195.475 431.718 193.571 437.006 189.763C442.295 185.955 446.632 182.147 450.016 178.339C452.132 176.012 454.036 174.848 455.728 174.848C457.843 174.848 458.901 175.906 458.901 178.022C458.901 178.233 458.901 178.656 458.901 179.291C458.901 179.714 458.69 180.137 458.267 180.56C454.036 187.542 449.276 193.465 443.987 198.331C438.699 202.985 432.987 206.476 426.852 208.803C420.929 211.341 414.477 212.611 407.496 212.611ZM414.477 131.057C416.804 131.057 420.718 130.422 426.218 129.153C431.929 127.672 437.853 125.451 443.987 122.489C450.122 119.316 455.305 115.508 459.536 111.065C463.978 106.411 466.199 100.911 466.199 94.5641C466.199 91.814 465.459 89.4869 463.978 87.5829C462.497 85.4674 460.382 84.4096 457.632 84.4096C453.189 84.4096 448.324 86.3136 443.035 90.1215C437.958 93.7179 433.093 98.1605 428.439 103.449C423.785 108.527 419.871 113.498 416.698 118.364C413.737 123.23 412.256 126.826 412.256 129.153C412.256 130.422 412.996 131.057 414.477 131.057Z" fill="white"/>
<path d="M32.8743 469.683C30.1242 469.683 27.7972 468.096 25.8934 464.923C23.9895 461.538 23.8837 454.98 25.576 445.248C31.7108 409.707 36.7878 379.455 40.8071 354.492C44.8265 329.529 47.5765 308.268 49.0573 290.709C49.4804 283.939 48.9515 278.756 47.4707 275.16C46.2015 271.352 41.336 268.813 32.8743 267.544C29.7011 267.121 27.5857 266.38 26.528 265.323C25.6818 264.053 25.2587 262.678 25.2587 261.197C25.2587 259.716 26.2107 258.659 28.1146 258.024C30.0184 257.389 32.2396 257.072 34.7782 257.072C39.009 257.072 43.9803 257.389 49.6919 258.024C55.6151 258.659 61.8557 258.976 68.4135 258.976C72.2213 258.976 76.029 258.976 79.8368 258.976C83.6446 258.764 87.2408 258.659 90.6255 258.659C94.0102 258.659 96.866 258.659 99.193 258.659C101.732 258.659 103.635 258.976 104.905 259.611C106.174 260.034 106.809 260.88 106.809 262.149C106.809 263.63 105.645 264.899 103.318 265.957C101.203 267.015 98.6641 267.755 95.7025 268.179C89.5678 269.025 84.7023 270.823 81.1061 273.573C77.7214 276.323 75.3944 281.718 74.1252 289.757L52.8651 419.862C52.2305 423.458 52.0189 425.997 52.2305 427.478C52.6536 428.959 53.2882 429.699 54.1343 429.699C54.9805 429.699 56.0382 428.747 57.3075 426.843C58.5767 424.939 60.5864 422.295 63.3365 418.91L152.185 309.114C159.8 299.806 164.666 292.296 166.781 286.584C169.108 280.66 169.637 276.218 168.368 273.256C167.098 270.294 164.983 268.602 162.021 268.179C158.637 267.755 156.521 267.015 155.675 265.957C154.829 264.688 154.406 263.313 154.406 261.832C154.406 260.563 155.358 259.716 157.262 259.293C159.165 258.659 161.387 258.341 163.925 258.341C166.675 258.341 170.8 258.447 176.3 258.659C182.012 258.87 187.512 258.976 192.801 258.976C199.359 258.976 204.541 258.659 208.349 258.024C212.368 257.389 216.811 257.072 221.676 257.072C224.215 257.072 226.013 257.495 227.071 258.341C228.34 258.976 228.975 259.928 228.975 261.197C228.975 262.678 227.917 264.053 225.801 265.323C223.686 266.38 220.83 267.438 217.234 268.496C211.734 269.977 205.705 272.515 199.147 276.112C192.589 279.708 186.243 285.314 180.108 292.93L62.3845 435.094C58.9998 439.113 55.8267 443.133 52.8651 447.152C49.9035 451.172 47.0477 454.874 44.2976 458.259C41.7591 461.644 39.5379 464.394 37.634 466.509C35.7301 468.625 34.1435 469.683 32.8743 469.683Z" fill="white"/>
<path d="M201.44 469.683C197.844 469.683 194.882 468.519 192.555 466.192C190.228 463.865 189.065 461.432 189.065 458.893C189.065 458.047 189.065 457.201 189.065 456.355C189.276 455.509 189.594 454.662 190.017 453.816C198.69 436.257 205.988 419.756 211.912 404.313C217.835 388.658 223.123 375.013 227.777 363.377C228.623 360.839 228.095 359.569 226.191 359.569C225.133 359.569 223.018 360.204 219.844 361.473C216.883 362.531 213.71 364.012 210.325 365.916C206.94 367.82 203.979 369.724 201.44 371.628C200.382 372.474 199.325 372.686 198.267 372.263C197.209 371.839 196.68 371.099 196.68 370.041C196.68 368.983 197.421 367.503 198.902 365.599C200.594 363.483 202.815 361.156 205.565 358.617C208.527 356.079 212.017 353.434 216.037 350.684C220.056 347.722 224.393 344.866 229.046 342.116C233.912 339.155 238.989 336.51 244.278 334.183C246.181 333.337 248.085 333.548 249.989 334.818C251.893 336.087 253.374 337.674 254.432 339.578C255.701 341.482 256.124 342.962 255.701 344.02L216.989 435.728C216.142 437.421 215.508 439.113 215.085 440.806C214.873 442.287 214.767 443.662 214.767 444.931C214.767 446.412 215.296 447.47 216.354 448.104C217.623 448.527 218.787 448.739 219.844 448.739C222.806 448.739 226.191 447.364 229.998 444.614C233.806 441.652 237.826 438.161 242.056 434.142C246.499 429.911 250.73 425.785 254.749 421.766C255.172 421.343 255.595 421.131 256.018 421.131C256.441 421.131 256.864 421.343 257.287 421.766C257.711 421.978 257.922 422.295 257.922 422.718C257.922 426.103 255.912 430.44 251.893 435.728C247.874 440.806 242.797 445.989 236.662 451.278C230.739 456.355 224.604 460.692 218.258 464.288C211.912 467.884 206.306 469.683 201.44 469.683ZM265.538 302.45C262.365 302.45 259.72 301.181 257.605 298.642C255.489 296.104 254.432 293.248 254.432 290.074C254.432 284.997 256.124 280.554 259.509 276.746C262.893 272.727 267.124 270.717 272.201 270.717C275.586 270.717 278.23 272.198 280.134 275.16C282.038 277.91 282.99 280.978 282.99 284.362C282.99 289.017 281.298 293.248 277.913 297.056C274.528 300.652 270.403 302.45 265.538 302.45Z" fill="white"/>
<path d="M308.868 467.779C300.618 467.779 294.06 465.452 289.195 460.797C284.329 455.932 281.897 449.585 281.897 441.758C281.897 436.469 282.531 430.545 283.801 423.987C285.07 417.218 286.868 410.342 289.195 403.361L329.177 282.458C330.234 279.497 330.975 276.641 331.398 273.89C332.032 270.929 332.35 268.073 332.35 265.323C332.35 264.265 331.715 263.313 330.446 262.467C329.388 261.62 327.378 260.774 324.417 259.928C317.859 258.236 314.58 256.649 314.58 255.168C314.58 254.11 314.897 253.264 315.532 252.629C316.378 251.995 317.753 251.36 319.657 250.725C321.984 249.879 324.946 248.927 328.542 247.869C332.35 246.6 336.157 245.437 339.965 244.379C343.773 243.321 347.158 242.475 350.119 241.84C353.292 241.206 355.302 240.888 356.148 240.888C359.533 240.888 361.225 241.946 361.225 244.062C361.225 245.965 361.014 247.658 360.591 249.139C360.379 250.408 359.85 252.206 359.004 254.533C357.312 258.764 354.985 265.111 352.023 273.573C349.062 281.824 345.783 291.132 342.186 301.498C338.802 311.653 335.311 322.019 331.715 332.596C328.119 342.962 324.734 352.694 321.561 361.791C318.599 370.887 316.272 378.186 314.58 383.686C313.734 385.802 313.734 387.071 314.58 387.494C315.638 387.917 316.907 387.177 318.388 385.273C330.869 368.772 342.715 356.079 353.927 347.194C365.139 338.308 374.658 333.866 382.485 333.866C389.255 333.866 394.861 336.087 399.303 340.53C403.745 344.972 405.967 350.578 405.967 357.348C405.967 367.08 403.957 377.128 399.938 387.494C396.13 397.649 390.841 407.592 384.072 417.323C377.514 426.843 370.004 435.411 361.543 443.027C353.081 450.643 344.302 456.672 335.206 461.115C326.321 465.557 317.542 467.779 308.868 467.779ZM317.119 457.624C319.869 457.624 323.465 456.143 327.907 453.182C332.35 450.22 337.109 446.2 342.186 441.123C347.475 435.834 352.552 429.911 357.418 423.353C362.495 416.583 367.149 409.179 371.379 401.14C375.61 392.889 378.889 385.062 381.216 377.657C383.755 370.041 385.024 363.695 385.024 358.617C385.024 355.021 384.072 352.059 382.168 349.732C380.476 347.194 378.36 345.924 375.822 345.924C369.264 345.924 361.754 349.626 353.292 357.031C344.831 364.435 334.994 375.753 323.782 390.985C316.801 400.716 311.195 409.707 306.965 417.958C302.734 426.209 300.618 432.344 300.618 436.363C300.618 442.075 302.205 447.047 305.378 451.278C308.763 455.509 312.676 457.624 317.119 457.624Z" fill="white"/>
<path d="M441.893 470C437.45 470 432.902 468.308 428.248 464.923C423.806 461.538 420.104 457.307 417.142 452.23C414.18 446.941 412.7 441.863 412.7 436.998C412.7 426.42 414.815 415.208 419.046 403.361C423.488 391.302 429.517 380.09 437.133 369.724C444.748 359.146 453.527 350.578 463.47 344.02C473.624 337.251 484.307 333.866 495.519 333.866C502.923 333.866 508.634 335.452 512.654 338.626C516.885 341.587 519 345.818 519 351.319C519 357.877 516.885 363.589 512.654 368.455C508.634 373.32 503.134 377.551 496.153 381.148C489.172 384.533 481.345 387.389 472.672 389.716C464.21 392.043 455.537 394.053 446.652 395.745C445.383 395.956 444.325 396.274 443.479 396.697C442.845 396.908 442.316 397.649 441.893 398.918C440.412 403.572 438.931 408.65 437.45 414.15C435.969 419.65 435.229 424.833 435.229 429.699C435.229 437.104 436.604 442.815 439.354 446.835C442.316 450.854 446.547 452.864 452.047 452.864C459.662 452.864 466.114 450.96 471.403 447.152C476.691 443.344 481.028 439.536 484.413 435.728C486.528 433.401 488.432 432.238 490.124 432.238C492.24 432.238 493.298 433.296 493.298 435.411C493.298 435.623 493.298 436.046 493.298 436.68C493.298 437.104 493.086 437.527 492.663 437.95C488.432 444.931 483.672 450.854 478.384 455.72C473.095 460.374 467.384 463.865 461.249 466.192C455.326 468.731 448.874 470 441.893 470ZM448.873 388.446C451.2 388.446 455.114 387.812 460.614 386.542C466.326 385.062 472.249 382.84 478.384 379.878C484.519 376.705 489.701 372.897 493.932 368.455C498.375 363.8 500.596 358.3 500.596 351.953C500.596 349.203 499.855 346.876 498.375 344.972C496.894 342.857 494.778 341.799 492.028 341.799C487.586 341.799 482.72 343.703 477.432 347.511C472.355 351.107 467.489 355.55 462.835 360.839C458.181 365.916 454.268 370.887 451.095 375.753C448.133 380.619 446.652 384.215 446.652 386.542C446.652 387.812 447.393 388.446 448.873 388.446Z" fill="white"/>
</svg>
